<svg width="110" height="17" viewBox="0 0 110 17" fill="none" xmlns="http://www.w3.org/2000/svg">
<path fill-rule="evenodd" clip-rule="evenodd" d="M9.01265 13.6975L13.1626 16.2075C13.9226 16.6675 14.8526 15.9875 14.6526 15.1275L13.5526 10.4075L17.2226 7.2275C17.8926 6.6475 17.5326 5.5475 16.6526 5.4775L11.8226 5.0675L9.93265 0.607498C9.59265 -0.202499 8.43265 -0.202499 8.09265 0.607498L6.20265 5.0575L1.37265 5.4675C0.492646 5.5375 0.132645 6.6375 0.802647 7.2175L4.47265 10.3975L3.37265 15.1175C3.17265 15.9775 4.10265 16.6575 4.86265 16.1975L9.01265 13.6975ZM32.0126 13.6975L36.1626 16.2075C36.9226 16.6675 37.8526 15.9875 37.6526 15.1275L36.5526 10.4075L40.2226 7.2275C40.8926 6.6475 40.5326 5.5475 39.6526 5.4775L34.8226 5.0675L32.9326 0.607498C32.5927 -0.202499 31.4326 -0.202499 31.0927 0.607498L29.2027 5.0575L24.3727 5.4675C23.4926 5.5375 23.1326 6.6375 23.8026 7.2175L27.4726 10.3975L26.3727 15.1175C26.1727 15.9775 27.1027 16.6575 27.8626 16.1975L32.0126 13.6975ZM78.0126 13.6975L82.1626 16.2075C82.9226 16.6675 83.8526 15.9875 83.6526 15.1275L82.5526 10.4075L86.2226 7.2275C86.8926 6.6475 86.5326 5.5475 85.6526 5.4775L80.8226 5.0675L78.9326 0.607498C78.5927 -0.202499 77.4326 -0.202499 77.0927 0.607498L75.2027 5.0575L70.3727 5.4675C69.4926 5.5375 69.1326 6.6375 69.8026 7.2175L73.4726 10.3975L72.3727 15.1175C72.1727 15.9775 73.1027 16.6575 73.8626 16.1975L78.0126 13.6975ZM59.1626 16.2075L55.0126 13.6975L50.8626 16.1975C50.1027 16.6575 49.1727 15.9775 49.3727 15.1175L50.4726 10.3975L46.8026 7.2175C46.1326 6.6375 46.4926 5.5375 47.3727 5.4675L52.2027 5.0575L54.0927 0.607498C54.4326 -0.202499 55.5927 -0.202499 55.9326 0.607498L57.8226 5.0675L62.6526 5.4775C63.5326 5.5475 63.8926 6.6475 63.2226 7.2275L59.5526 10.4075L60.6526 15.1275C60.8526 15.9875 59.9226 16.6675 59.1626 16.2075ZM105.163 16.2075L101.013 13.6975L96.8627 16.1975C96.1026 16.6575 95.1727 15.9775 95.3727 15.1175L96.4727 10.3975L92.8026 7.2175C92.1326 6.6375 92.4926 5.5375 93.3727 5.4675L98.2027 5.0575L100.093 0.607498C100.433 -0.202499 101.593 -0.202499 101.933 0.607498L103.823 5.0675L108.653 5.4775C109.533 5.5475 109.893 6.6475 109.223 7.2275L105.553 10.4075L106.653 15.1275C106.853 15.9875 105.923 16.6675 105.163 16.2075Z" fill="#FCFF51"/>
</svg>
